<?xml version="1.0" encoding="UTF-8"?>
<svg width="86px" height="116px" viewBox="0 0 86 116" version="1.1" xmlns="http://www.w3.org/2000/svg" xmlns:xlink="http://www.w3.org/1999/xlink">
    <!-- Generator: Sketch 49.3 (51167) - http://www.bohemiancoding.com/sketch -->
    <title>Group</title>
    <desc>Created with Sketch.</desc>
    <defs>
        <linearGradient x1="0%" y1="0%" x2="98.6052185%" y2="97.6385016%" id="linearGradient-1">
            <stop stop-color="#004D40" offset="0%"></stop>
            <stop stop-color="#64FFDA" offset="100%"></stop>
        </linearGradient>
    </defs>
    <g id="Page-1" stroke="none" stroke-width="1" fill="none" fill-rule="evenodd">
        <g id="Group" fill="url(#linearGradient-1)" fill-rule="nonzero">
            <path d="M21,107.4 C11.6,98.9 3.5,82.4 1,66.7 C-0.5,57.3 0.1,40.7 2.5,29.5 C4.4,20.2 10.9,0 12,0 C12.4,0 13.7,3.9 14.9,8.7 C19.9,28.9 32.8,47.5 46.1,53.7 C49.6,55.4 51.9,57.1 51.9,58.1 C52.1,62.6 46.4,80.6 42,89.5 C36.8,100.1 29,111 26.5,111 C25.7,111 23.2,109.4 21,107.4 Z" id="Shape" transform="translate(26.043666, 55.500000) scale(-1, 1) rotate(-180.000000) translate(-26.043666, -55.500000) "></path>
            <path d="M69.7,109.607478 C66.5,108.807478 60.6,106.607478 56.6,104.707478 C35.5,95.0074782 22.8,79.5074782 16,55.0074782 C14,47.5074782 14.7,46.2074782 17.9,51.5074782 C25.2,63.2074782 40.3,71.2074782 58,72.7074782 L65.7,73.4074782 L70.7,81.5074782 C76.7,91.0074782 79.9,99.4074782 80.3,105.907478 C80.5,110.307478 80.3,110.607478 78,110.807478 C76.6,110.907478 72.9,110.307478 69.7,109.607478 Z" id="Shape" transform="translate(47.618860, 79.553739) scale(-1, 1) rotate(-180.000000) translate(-47.618860, -79.553739) "></path>
            <path d="M47.6,114.731401 C38.6,112.431401 28.8,106.731401 22.6,100.231401 C19.5,97.0314007 17,93.9314007 17,93.4314007 C17,91.8314007 29.2,88.9314007 38.5,88.4314007 C54.6,87.6314007 66.7,92.1314007 78.7,103.531401 C82.7,107.331401 86,110.831401 86,111.331401 C86,113.131401 75,115.431401 64.5,115.831401 C56.9,116.031401 51.7,115.731401 47.6,114.731401 Z" id="Shape" transform="translate(51.500000, 102.115700) scale(-1, 1) rotate(-180.000000) translate(-51.500000, -102.115700) "></path>
        </g>
    </g>
</svg>